<svg xmlns="http://www.w3.org/2000/svg" viewBox="0 0 800 311" xmlns:v="https://vecta.io/nano"><path d="M0 0h800v311H0V0Z" fill="#fefefe"/><g fill="#579adb"><path d="M226 15a271.847 271.847 0 0 1 5.684 14.102l1.585 4.254.848 2.278 4.73 12.577 1.022 2.707 3.194 8.457 1.118 2.963a9496.058 9496.058 0 0 0 14.881 39.162l.809 2.112a23403.89 23403.89 0 0 0 6.326 16.507l11.784 31.684c1.687 4.671 3.444 9.297 5.335 13.888l1.14 2.768 2.194 5.197.979 2.352.877 2.051c.61 2.395.433 3.663-.506 5.941-3 2-3 2-7 2l.91 1.61 1.152 2.14 1.16 2.11c.962 2.645.877 3.559-.222 6.14-2.243 1.549-2.243 1.549-5.23 3.031l-3.337 1.687-1.786.879-7.445 3.739-3.793 1.916c-5.43 2.739-10.774 5.618-16.096 8.56l-26.688 14.375-2.046 1.086-12.488 6.62a26606.75 26606.75 0 0 0-18.466 9.794l-2.029 1.077a4261.304 4261.304 0 0 0-26.471 14.173A4577.776 4577.776 0 0 1 127 281.563l-2.204 1.17a2345.297 2345.297 0 0 1-12.06 6.353l-4.814 2.586-2.672 1.419-2.234 1.21c-2.497.867-3.61.776-6.016-.3-1.261-1.544-1.261-1.544-2.332-3.543l-1.218-2.231-1.263-2.413-1.34-2.488c-3.085-5.763-6.007-11.603-8.89-17.47-2.418-4.834-5.041-9.556-7.644-14.293L62 228.501l-11.875-22.25c-4.502-8.186-8.846-16.445-13.125-24.75a1327.902 1327.902 0 0 0-16.477-30.953l-1.29-2.361a94.763 94.763 0 0 0-2.49-4.168c-2.767-4.399-2.767-4.399-2.646-7.524 1.211-3.346 2.626-3.963 5.743-5.607l2.97-1.592 3.128-1.607 3.115-1.667C36.66 122 36.66 122 39 122l-1.01-2.583a2578.345 2578.345 0 0 1-3.69-9.532l-1.6-4.118a978.33 978.33 0 0 1-2.294-5.935L29.01 96.23c-.933-2.983-1.234-5.14-1.01-8.23l6-2.625 3.375-1.477c5.948-2.496 12.013-4.693 18.058-6.941l14.973-5.61A173522.434 173522.434 0 0 1 90.1 63.963l9.416-3.532 1.88-.705 24.463-9.155 41.534-15.93c6.633-2.69 13.345-5.141 20.084-7.554a650.028 650.028 0 0 0 15.039-5.59l3.278-1.26 6.264-2.443c8.74-3.355 8.74-3.355 13.942-2.793z"/><path d="M226 15a271.847 271.847 0 0 1 5.684 14.102l1.585 4.254.848 2.278 4.73 12.577 1.022 2.707 3.194 8.457 1.118 2.963a9496.058 9496.058 0 0 0 14.881 39.162l.809 2.112a23403.89 23403.89 0 0 0 6.326 16.507l11.784 31.684c1.687 4.671 3.444 9.297 5.335 13.888l1.14 2.768 2.194 5.197.979 2.352.877 2.051c.611 2.401.468 3.666-.506 5.941-3.496 1.813-6.04 3-10 3v2l-3.078.918c-7.319 2.214-14.426 4.582-21.45 7.625-4.699 1.972-9.457 3.775-14.222 5.582l-2.69 1.02-5.136 1.934a209.502 209.502 0 0 0-4.738 1.865c-5.371 2.16-5.371 2.16-8.686 1.056 5.863-3.713 11.44-6.734 18-9 1.807-1.807 1.173-4.504 1.188-6.938l.042-3.277c.06-2.925.06-2.925-2.23-4.785l-.148 2.555-.227 3.32-.21 3.305C234 197 234 197 232 199c-2.149.265-2.149.265-4.865.285l-3.115.038-3.43.012-3.602.035-9.793.068-10.233.077-17.182.118-19.89.143-19.107.145-8.144.06-11.358.072-3.437.03-3.106.013-2.715.017C110 200 110 200 109 199c-.666-4.068-.868-6.591 1.328-10.156 1.72-2.111 3.493-4.166 5.289-6.213 2.844-3.354 5.47-6.882 8.133-10.381a1667.6 1667.6 0 0 0 1.68-2.185c2.398-3.132 4.723-6.25 6.836-9.58L134 158h2l.813-1.734c1.228-2.345 2.612-4.39 4.187-6.516l1.563-2.14L144 146h2l.305-1.75c.831-2.69 1.996-4.102 3.82-6.25 4.278-5.188 8.3-10.542 12.313-15.938 3.927-5.269 7.848-10.516 12.062-15.562 4.302-5.16 8.34-10.506 12.375-15.875l1.986-2.635 1.881-2.513 1.683-2.248c1.656-2.343 3.11-4.763 4.575-7.229l-3.365.051-31.344.444-16.115.229-15.542.214-5.94.088-8.297.11-2.5.05c-1.967.014-3.933-.076-5.897-.186-2-2-2-2-2.266-3.988.03-4.444.18-7.97 2.266-12.012l-4-2 3.504-1.328a4827.74 4827.74 0 0 0 32.183-12.36 7896.525 7896.525 0 0 1 34.25-13.187l2.097-.802 26.286-9.945a5514.38 5514.38 0 0 0 14.594-5.495c3.183-.91 5.794-1.051 9.086-.883z"/></g><path d="M40 123c5.151 12.624 10.195 25.244 14.59 38.153 2.078 6.053 4.498 11.86 7.086 17.714 1.223 2.894 2.245 5.767 3.199 8.758 1.704 5.314 3.716 10.457 5.813 15.625 3.53 8.707 6.874 17.472 10.149 26.278l7.288 18.886c.963 2.846 1.457 5.615 1.875 8.586 6.451-.573 11.98-2.691 18-5l3.844-1.422c6.054-2.237 12.082-4.507 18.031-7.016 11.777-4.965 23.657-9.479 35.809-13.44 5.022-1.65 9.868-3.538 14.722-5.638 6.2-2.56 12.503-4.854 18.792-7.186l13.9-5.341c5.028-2.028 10.111-3.877 15.214-5.707a1181.084 1181.084 0 0 0 25.547-9.548c4.67-1.798 9.35-3.47 14.122-4.98 2.063-.68 2.063-.68 4.028-1.81C274 189 274 189 278 189v-2h3c4.04 6.367 4.04 6.367 3.875 8.93-1.292 3.057-3.165 3.642-6.105 5.101l-3.337 1.687-1.786.879-7.445 3.739-3.793 1.916c-5.43 2.739-10.774 5.618-16.096 8.56l-26.688 14.375-2.046 1.086-12.488 6.62a26606.75 26606.75 0 0 0-18.466 9.794l-2.029 1.077a4261.304 4261.304 0 0 0-26.471 14.173A4577.776 4577.776 0 0 1 127 281.563l-2.204 1.17a2345.297 2345.297 0 0 1-12.06 6.353l-4.814 2.586-2.672 1.419-2.234 1.21c-2.497.867-3.61.776-6.016-.3-1.261-1.544-1.261-1.544-2.332-3.543l-1.218-2.231-1.263-2.413-1.34-2.488c-3.085-5.763-6.007-11.603-8.89-17.47-2.418-4.834-5.041-9.556-7.644-14.293L62 228.501l-11.875-22.25c-4.502-8.186-8.846-16.445-13.125-24.75a1327.902 1327.902 0 0 0-16.477-30.953l-1.29-2.361a94.763 94.763 0 0 0-2.49-4.168c-2.771-4.405-2.771-4.405-2.628-7.537 1.161-3.256 2.392-3.817 5.436-5.376l2.806-1.455 2.956-1.463 2.92-1.521C35.43 123 35.43 123 40 123z" fill="#33557d"/><path d="M334 70h107c0 20.572 0 20.572-6.665 27.807l-1.405 1.295c-2.643 2.548-4.728 5.233-6.805 8.273-3.727 5.252-7.879 10.03-12.127 14.858-4.685 5.345-9.084 10.872-13.44 16.486-3.076 3.965-6.262 7.837-9.453 11.71a593.225 593.225 0 0 0-5.98 7.446c-3.893 4.89-7.942 9.631-12.023 14.363C368.59 177.71 364.324 183.38 360 189h83v22H327c0-21 0-21 3.625-26.313A317.526 317.526 0 0 1 335 181a102.37 102.37 0 0 0 3.375-4.563c1.398-2.003 1.398-2.003 2.625-3.437h2l2-5h2l.684-1.621c1.742-3.15 4.028-5.739 6.378-8.441l3.016-3.52 1.51-1.76c2.684-3.152 5.286-6.37 7.9-9.58l11.352-13.81 9.848-12.018a463.613 463.613 0 0 1 7.199-8.633l1.503-1.759a715.628 715.628 0 0 1 2.894-3.357c2.591-3.024 4.689-6.084 6.716-9.501l3-3h-75V70zm356.324 43.516c5.54 4.907 10.256 9.84 10.948 17.488l.031 3.375.05 3.843.026 4.126.051 4.254.113 11.176.188 17.898.055 6.241.04 3.833.03 3.373c.062 3.098.062 3.098 1.144 6.877h9v15c-5.095 1.698-8.849 2.337-14.063 2.313l-2.103.048c-5.458.006-8.402-1.45-12.584-4.736-1.622-2.109-1.794-4.034-2.25-6.625l-1.914 1.39c-11.01 7.551-21.211 9.935-34.336 10.11l-2.759.056c-9.346-.087-17.45-2.985-24.23-9.544-6.818-7.786-7.726-15.692-7.238-25.715.567-6.547 2.613-11.389 7.239-16.086 8.24-6.787 18.238-8.877 28.55-10.336l3.334-.508a559.604 559.604 0 0 1 13.659-1.922c5.93-.78 10.15-1.404 14.695-5.445 1.738-3.476 1.448-7.2 1-11-1.882-3.763-4.078-5.278-7.875-6.813-8.882-2.569-18.89-2.529-27.125 1.813-4.945 3.87-5.138 5.484-7 12h-23c1.15-9.195 2.74-17.439 10.059-23.785 16.924-12.754 48.212-15.669 66.265-2.7zm-158.758 1.531c11.42 9.871 17.585 20.136 20.434 34.953v16h-75c2.035 13.86 2.035 13.86 9.813 23.813 7.102 4.874 13.605 6.09 22.187 5.187 7.083-1.51 11.9-4.142 16.25-10.063 1.84-2.85 1.84-2.85 2.75-5.937h22c-2.488 8.294-3.986 12.613-9 19l-1.453 1.871c-8.47 9.605-21.338 13.512-33.695 14.34-14.658.453-27.175-3.906-38.164-13.774-11.28-12.15-14.515-28.628-14.04-44.667.87-15.563 7.174-28.036 18.352-38.77 16.824-13.881 42.082-15.898 59.566-1.953z" fill="#9a9a9a"/><path d="M109 66h122c-1.914 3.827-4.155 6.886-6.813 10.188l-2.996 3.773-1.585 1.999-7.981 10.353-1.641 2.15A6606.537 6606.537 0 0 0 205 101l-25.286 32.624-19.784 25.603-13.48 17.335c-2.7 3.394-5.027 6.803-7.45 10.438h93v10H109c0-6.718 0-6.718 3.188-10.313l2.183-2.566 1.246-1.457c2.817-3.388 5.462-6.911 8.133-10.414a1667.6 1667.6 0 0 0 1.68-2.185c2.397-3.132 4.723-6.249 6.836-9.58L134 158h2l.813-1.734c1.228-2.345 2.612-4.39 4.187-6.516l1.563-2.14L144 146h2l.305-1.75c.831-2.69 1.996-4.102 3.82-6.25 4.278-5.188 8.3-10.542 12.313-15.938 4.565-6.124 9.192-12.143 14.105-17.996 2.132-2.66 4.172-5.358 6.195-8.101l2.032-2.75a850.321 850.321 0 0 0 4.003-5.488l1.872-2.543 1.667-2.296C194 81 194 81 196.147 79.988L198 79l1-4h-90v-9z" fill="#f9fcfc"/><path d="M569 70h23v141h-23V70Z" fill="#9b9b9b"/><path d="M785 106v22l-8.5.188c-9.072.394-13.803 2.115-20.25 8.562-7.06 10.198-7.394 19.901-7.566 31.965l-.063 3.67-.183 11.553-.131 7.853L748 211h-22V109h21l1 15 2-4h2l.742-1.777c3.125-5.523 9.9-9.81 15.863-11.801 5.418-.955 10.92-.58 16.395-.422z" fill="#9a9a9a"/><path d="M679 161l.25 9 .102 2.543c.091 5.901-.795 10.615-4.352 15.457-2.75 1.5-2.75 1.5-5 2v2c-9.802 3.832-18.248 5.926-28.438 2.375-4.35-1.978-6.65-3.854-8.562-8.375-.69-4.062-.23-7.268 1-11.188 4.384-6.165 9.97-8.042 17.273-9.359a441.34 441.34 0 0 1 8.102-1.203l6.197-.938 5.574-.819c3.018-.521 4.763-1.493 7.854-1.493z" fill="#fcfcfc"/><path d="M514.125 125.902c7.01 4.104 11.69 9.188 13.875 17.098l1 8h-52c0-8.276 1.7-12.481 6.125-19.25 8.468-8.1 20.044-10.755 31-5.848Z" fill="#fdfdfd"/><path d="M115 184l1 3a107.188 107.188 0 0 1-4 6v1l1.8.01 43.366.278 20.972.134 20.23.136 7.726.045 10.803.078 3.244.007 2.974.034 2.581.016C228 195 228 195 232 197H109c0-6.75 0-6.75 3-9.875l1.688-1.805L115 184z" fill="#ddf5ff"/><path d="M232 187l2 1 .125 4.375.07 2.46C234 197 234 197 232 199c-2.151.262-2.151.262-4.872.278l-3.12.034-3.434.007-3.607.03a2465.2 2465.2 0 0 1-9.805.056l-10.242.068-19.4.116-22.085.138L110 200l-1-3h123v-10z" fill="#6697ce"/><path d="M108 63h4v2h113v1H109v9h90l-1 4-2-1 1-2-3.365.051-31.344.444-16.115.229-15.542.214-5.94.088-8.297.11-2.5.05c-1.967.014-3.933-.076-5.897-.186-2-2-2-2-2.266-4.059l.016-2.379-.016-2.37C106 66 106 66 108 63z" fill="#7aa5d1"/><path d="M110 76h87c-1.664 4.16-2.91 6.445-5.625 9.813l-1.914 2.394L188 90l-1-2c.938-2.625.938-2.625 2-5h3v-5l-3.024.013-28.164.09-14.481.048-13.967.039-5.337.021-7.456.016-2.245.022c-5.098-.02-5.098-.02-7.326-2.249z" fill="#5899d7"/><path d="M109 66h122c-1.431 2.862-2.547 4.88-4.46 7.313l-1.43 1.82L223.624 77l-1.46 1.867c-2.56 3.242-5.16 6.285-8.165 9.133.644-2.953 1.593-5.483 2.938-8.188l1.027-2.105C219 76 219 76 221 75l2 1 .438-1.75L225 68H112l-2 6 3 1h-4v-9z" fill="#e8fcfe"/><path d="M140 184l1 2 32.598-.34 15.136-.157 14.608-.156 5.573-.056 7.806-.086 2.326-.017c3.768-.052 7.288-.287 10.953-1.188l2 3h-93l1-3z" fill="#6397c9"/><path d="M110 76h87l-2 5-1-4h-84v-1Z" fill="#6497c9"/><path d="M172 143h2c-.875 4.75-.875 4.75-2 7h-2l-.813 1.75c-1.216 2.306-2.49 4.27-4.187 6.25h-2c-1.414 2.639-2.372 5.071-3 8h-5c2.803-5.174 5.943-9.73 9.625-14.313l1.484-1.876c1.884-2.37 3.75-4.67 5.891-6.811Z" fill="#669bd5"/><path d="M173 105h2c-1.404 4.131-3.372 6.935-6.188 10.25A439.532 439.532 0 0 0 157 130c-1-2-1-2-.313-5 1.313-3 1.313-3 3.274-3.875 3.41-1.88 3.706-5.26 4.816-8.813 1.592-3.01 3.089-3.213 6.223-4.312l2-3Z" fill="#639bd2"/><path d="M208 96l1 2-1.46 1.793-1.915 2.394-1.898 2.356c-1.82 2.382-1.82 2.382-2.766 5.133C200 112 200 112 197 114l-1 2.5c-1 2.5-1 2.5-4 4.5-1.192 2.05-1.192 2.05-2 4h-2v2l-4 1a180.388 180.388 0 0 1 8.625-12.063l2.625-3.39 1.36-1.752 7.015-9.108 2.54-3.3L208 96z" fill="#6b9dcc"/><path d="M250 199a62185.7 62185.7 0 0 1-10 3.813l-2.832 1.08-5.55 2.106a242.45 242.45 0 0 0-4.985 1.967c-5.318 2.14-5.318 2.14-8.633 1.034 7.113-4.863 13.623-7.207 22-9l4.063-1.25C247 198 247 198 250 199z" fill="#5a94cd"/><path d="M171 34v2h-3v2h-4v2l-1.836.516c-5.504 1.592-10.71 3.462-15.937 5.812-2.518.76-3.782.543-6.227-.328 3.197-2.131 6.447-3.483 10-4.875l2.012-.795C168.112 34 168.112 34 171 34Z" fill="#719fcd"/><path d="M248 75c1.938 2.908 3.062 5.484 4.313 8.734l1.32 3.43L255 90.75l1.367 3.54c2.116 5.52 4.159 10.98 5.633 16.71l-2 1-1.207-3.473-1.606-4.59-.79-2.279c-1.253-3.571-2.55-7.074-4.096-10.53C251 88 251 88 251 85h-2l-1-10z" fill="#6fa0cf"/><path d="M282 164c2.057 3.086 3.323 5.993 4.688 9.438l1.386 3.433c1.308 4.42 1.308 4.42-.074 7.129-3.563 1.75-3.563 1.75-7 3l-1-3 5-2-.656-2.922-.844-3.828-.844-3.797C282 168 282 168 282 164Z" fill="#689ed3"/><path d="M34 86v2l-4 1a382.48 382.48 0 0 0 1.313 5.375l.738 3.023c.77 2.91.77 2.91 3.949 4.602.512 2.82.512 2.82.688 6.125l.199 3.32L37 114c-3.144-3.144-4.116-7.186-5.625-11.313l-.984-2.591-.93-2.522-.85-2.294c-.673-2.511-.718-4.691-.611-7.28 3.75-2 3.75-2 6-2Z" fill="#6c9fcc"/><path d="m138 46 1 2-2.527.918c-5.334 1.986-10.425 3.91-15.286 6.895-4.26 2.524-7.295 2.632-12.187 2.187 2.425-1.617 4.283-2.598 6.95-3.621l2.321-.897 2.416-.92 2.358-.908A1737.52 1737.52 0 0 1 138 46Z" fill="#6d9dc9"/><path d="M209 21l-2 1-1 2c-3.95 1.291-7.913 2.257-12 3v2l-6 1v-3l8.813-3.563 2.525-1.037 2.432-.966 2.237-.905C206 20 206 20 209 21z" fill="#6c9dce"/><path d="m226 15 3 8-2 1c-1.46-2.647-2-3.894-2-7l-1.758.621c-4.404 1.52-8.599 2.784-13.242 3.379l-1-2c11.522-4.592 11.522-4.592 17-4Z" fill="#6e9dcc"/><path d="M231 207c-4.75 3-4.75 3-7 3v2c-10.374 3.444-10.374 3.444-16 3 1.884-3.769 7.13-4.38 10.938-5.688l2.826-1.01 2.7-.939 2.489-.866C229 206 229 206 231 207Z" fill="#335f8e"/><path d="M140 151l1 2-2 4 2 1-11 9c0-4.033 1.609-5.835 4-9h2l.875-1.813C138 154 138 154 140 151z" fill="#e7f5fc"/><path d="M240 54c2.836 2.836 3.774 6.304 5.125 10l.84 2.234C248 71.728 248 71.728 248 74h-2c-3.588-5.002-5.11-8.038-5.563-14.125l-.253-3.32L240 54Z" fill="#6c9fd1"/><path d="M226 21c3.357 2.238 3.58 2.933 4.688 6.625l.761 2.477L232 32h-5l-1 3c-1.125-2.25-1.125-2.25-2-5 .875-2 .875-2 2-4 .168-2.667.168-2.667 0-5Z" fill="#609ad1"/><path d="M76 254c4.154 2.077 5.516 3.191 8 7 .878 2.66 1.44 5.246 2 8l-2 1-8-16Z" fill="#455e7a"/><path d="M142 145h2c-1.552 4.968-4.51 9.179-8 13h-2l-2 5c-1-3-1-3 .625-6.375 2.04-3.357 4.522-5.922 7.375-8.625l2-3Z" fill="#699acc"/><path d="M233 67c-1.48 4.44-3.72 8.63-7 12-2.164.703-2.164.703-4 1 1.242-4.416 5.861-13 11-13Z" fill="#6a9bcd"/><path d="M110 250v2l-10 4-2.656 1.156c-2.84 1.023-4.483.662-7.344-.156l-1-5h2v4l1.828-.621 2.422-.816 2.39-.81a68.627 68.627 0 0 1 4.524-1.284c1.937-.426 1.937-.426 3.961-1.531C108 250 108 250 110 250Z" fill="#598fc6"/><path d="m283 192 2 4c-2.599 3.037-5.62 4.462-9.188 6.188l-3.292 1.605L270 205l-1-2c7.286-4.429 7.286-4.429 12-5l-1-3h2l1-3Z" fill="#4b607a"/><path d="m43 185 1 2h2c.853 3.226 1.476 6.466 2.063 9.75l.535 2.984L49 202c-3.636-4.026-6.632-8.706-8-14l2-3Z" fill="#435b7c"/><path d="m178 251 3 1c-3.062 2.486-6.146 4.1-9.75 5.688l-2.984 1.324L166 260l1-3c2.063-.688 2.063-.688 4-1l-1-4 3.438.063c3.378.353 3.378.353 4.562-1.063Z" fill="#3f5979"/><path d="m127 168 1 3c-1.774 2.998-3.535 5.535-6 8l-1 2.063C120 183 120 183 118 184l-2-2 11-14Z" fill="#e2f4fc"/><path d="M191 222l-1 2-5 1-1 2c-1.813.563-1.813.563-4 1l-2.063.688C176 229 176 229 173 227l7.875-3.063 2.262-.892c5.636-2.158 5.636-2.158 7.863-1.045z" fill="#336192"/><path d="M28 128v2l4-1-1 3-2.313.375c-2.89.506-2.89.506-5.687 2.625l-4-2c6.129-5 6.129-5 9-5Z" fill="#405b7d"/><path d="m151 170 1 3-3 1a54.922 54.922 0 0 0-1 4 200.157 200.157 0 0 1-3 6h-3c0-4.176 1.834-5.54 4.5-8.688l2.531-3.011L151 170Z" fill="#71a1d2"/><path d="M183 128c1 2 1 2 .617 3.84-1.295 3.661-2.088 5.735-5.18 8.222L176 141l-2-1 9-12z" fill="#6b9ccc"/><path d="M101 289h7v3c-6.4 3.077-6.4 3.077-9.438 2.688L97 294l4-1v-4Z" fill="#455e7e"/><path d="M58 172c2.607 2.607 3.48 5.536 4.688 8.938l.72 1.92c1.713 4.778 1.713 4.778.592 8.142-1.694-3.3-3.215-6.658-4.688-10.063l-1.386-3.16C57 175 57 175 58 172Z" fill="#2f5f92"/><path d="m189 117 3 1-10 13-2-2 1.688-2.063c2.552-3.242 4.933-6.566 7.312-9.937Z" fill="#dff3fd"/><path d="m64 76-1.813.813c-2.232 1.03-2.232 1.03-3.5 2.812C56.002 81.813 53.328 81.188 50 81v-2a506.083 506.083 0 0 1 5.313-2.063l2.988-1.16C61 75 61 75 64 76Z" fill="#73a1ce"/><path d="m181 98 2 1c-1.654 2.96-3.437 5.607-5.625 8.188-2.341 2.548-2.341 2.548-3.375 4.812l-3-1 10-13Z" fill="#e0f5fd"/><path d="m219 226 2.25.5c2.94.62 2.94.62 6.75.5-3.41 2.865-6.907 4.347-11 6l-1-3 4-1-1-3Z" fill="#425d7c"/><path d="M91 66v3l-14 1c2.414-1.61 4.34-2.655 7-3.688l2.063-.824C88 65 88 65 91 66Z" fill="#6e9dcd"/><path d="M200 217c-3.07 2.047-5.69 2.997-9.188 4.125l-3.292 1.07L185 223c1.49-3.762 1.49-3.762 3.77-4.828l2.042-.422 2.145-.445A32.94 32.94 0 0 1 200 217Z" fill="#5d95ce"/><path d="M76 70c-1.875 3.875-1.875 3.875-3 5l-4.563.063-2.503-.028L64 75c2.067-2.067 3.306-2.645 6-3.625l2.125-.79C74 70 74 70 76 70z" fill="#70a0ce"/><path d="M234 38c2.381 2.381 3.002 4.339 4.125 7.5l1.07 2.969C240 51 240 51 240 53h-2v-4h-2l-3-10 1-1Z" fill="#73a3d5"/><path d="M73 243l3 2 1 7-2 1-4-9 2-1z" fill="#405876"/><path d="M156 233c-3.641 3.338-7.286 3.979-12 5l1-4c3.674-1.176 7.17-1.074 11-1Z" fill="#5f98d2"/><path d="m164 226 9 1c-1 2-1 2-2.848 2.633l-2.214.492-2.223.508L164 231v-5Z" fill="#5994cf"/><path d="M63 184h5l1 5h-2v5c-2.952-2.952-3.087-5.955-4-10Z" fill="#5790cb"/><path d="M270 191l1 2-5.25 2.063-2.953 1.16c-2.837.788-4.091.801-6.797-.223l4.75-1.938 2.672-1.09A47.331 47.331 0 0 1 270 191z" fill="#325e90"/><path d="M108 187l4 1-2 3-1 6h-2c-.125-6.625-.125-6.625 1-10z" fill="#689dce"/><path d="M163 121h1v5h-2l-1 3c-1.438 1.688-1.438 1.688-3 3h-2c1.761-4.003 4.261-7.603 7-11Z" fill="#e0f4fc"/><path d="m216 85 1 4-2 3h-2l-2 4-2-1 7-10Z" fill="#719fcc"/><path d="m79 224 3 1 2 10-2 1a664.623 664.623 0 0 1-1.5-4.313l-.844-2.425C79 227 79 227 79 224Z" fill="#5e95d2"/><path d="m480 111 2 1-1.5 2.375c-1.665 2.41-1.665 2.41-1.5 4.625-3.875-1.75-3.875-1.75-5-4l6-4Z" fill="#a1a1a1"/><path d="M84 236c3.324 4.335 4.12 6.471 4 12-2.228-2.228-2.692-3.658-3.625-6.625l-.79-2.477L83 237l1-1z" fill="#5c93ca"/><path d="M206 217c-4.105 2.985-6.977 3.295-12 3 7.179-4.786 7.179-4.786 12-3Z" fill="#306090"/><path d="m35 177 5 2 1 8c-2.743-3.2-4.63-6.005-6-10Z" fill="#465a7a"/><path d="M31 169h3v2h3l-1 5h-2l-3-7Z" fill="#3f5777"/><path d="M262 114h2l3 10h-2l-1-4h-2v-6Z" fill="#719fcd"/><path d="M212 18c-3.673 2.448-6.546 4-11 4v-2l3.813-1.563 2.144-.878C209 17 209 17 212 18z" fill="#e4f7fd"/><path d="m288 180 1 3c-2.938 2.503-5.179 3.47-9 4v-3l3.438-.875L287 182l1-2Z" fill="#77a1c9"/><path d="M172 143h2l-1 5h-4v2l-2-1a158.814 158.814 0 0 1 5-6Z" fill="#6d9fd0"/><path d="M14 135h2c1.414 2.639 2.372 5.071 3 8l-2 1c-2.294-3.44-3-4.723-3-9Z" fill="#4c637b"/><path d="M126 282c-1 3-1 3-4.375 4.75C118 288 118 288 115 287a804.91 804.91 0 0 1 4.375-2.5l2.46-1.406C124 282 124 282 126 282Z" fill="#e6f3f9"/><path d="m228 227 1 2-6 5-3-3 8-4Z" fill="#e9f3f9"/><path d="M242 220l-3.875 2.063-2.18 1.16L234 224l-2-1 1-2 2 1v-2c3.01-.934 3.867-1.044 7 0z" fill="#465e7b"/><path d="M43 135c2.523 1.974 2.993 2.967 3.688 6.188L47 144l-3-1-1-8Z" fill="#2c5888"/><path d="m218 232 2 1-1 3c-2.821 1.07-4.905 1-8 1 4.75-3.875 4.75-3.875 7-5Z" fill="#e8f1f8"/><path d="m166 232-4 2-2 1.25c-2 .75-2 .75-4.125-.203L154 234a340.72 340.72 0 0 1 4.313-1.563l2.425-.878C163 231 163 231 166 232Z" fill="#326192"/><path d="M192 81l2 1-6 8-1-2 2-5h3v-2z" fill="#6a9bcc"/><path d="m151 167 1 3c-1.404 2.264-3.197 4.02-5 6l-1-4 1.938-.813c2.393-1.074 2.393-1.074 3.062-4.187Z" fill="#e3f6fd"/><path d="M134 158h1c.375 2.25.375 2.25 0 5-3 2.313-3 2.313-6 4a85.504 85.504 0 0 1 5-9Z" fill="#d4edf9"/><path d="M33 106c2.19 3.285 2.998 6.207 4 10l-3-1c-1.478-2.957-1.06-5.742-1-9Z" fill="#dff3fc"/><path d="m147 266 6 1c-2.386 1.892-4.072 3.024-7 4l1-5Z" fill="#4b6481"/><path d="m178 251 3 1c-1.688 1.563-1.688 1.563-4 3-2.75-.313-2.75-.313-5-1l6-3Z" fill="#465f80"/><path d="M210.125 233.938L213 235l-4 2-4-3c2-1 2-1 5.125-.063z" fill="#425f84"/><path d="M50 205h4l1 6-2 1-3-7Z" fill="#4a627a"/><path d="m115 184 1 3-5 5-2-1 6-7Z" fill="#d9f1fd"/><path d="M164 150l2 1-5 7-1-3 4-5z" fill="#e4f8fe"/></svg>